<?xml version="1.0" encoding="utf-8"?>
<!-- Generator: Adobe Illustrator 15.0.0, SVG Export Plug-In . SVG Version: 6.00 Build 0)  -->
<!DOCTYPE svg PUBLIC "-//W3C//DTD SVG 1.1//EN" "http://www.w3.org/Graphics/SVG/1.1/DTD/svg11.dtd">
<svg version="1.1" id="Layer_1" xmlns="http://www.w3.org/2000/svg" xmlns:xlink="http://www.w3.org/1999/xlink" x="0px" y="0px"
	 width="150px" height="40px" viewBox="0 0 150 40" enable-background="new 0 0 150 40" xml:space="preserve">
<circle fill="#D85269" cx="20" cy="20" r="20"/>
<path fill="#454751" d="M147.9,28H55.1c-1.2,0-2.1-0.9-2.1-2V14c0-1.1,0.9-2,2.1-2h92.8c1.199,0,2.1,0.9,2.1,2v12
	C150,27.1,149.1,28,147.9,28z"/>
<g id="XMLID_3_">
	<g>
		<path fill="#D85269" d="M28.308,29.368c-0.194-3.483,3.039-2.674,3.053,0C30.342,29.368,29.323,29.368,28.308,29.368z"/>
		<path d="M29.663,11.475c-0.863,0.06-1.318,0.726-1.355,1.988c0.132,0.959,1.552,0.045,1.015,1.988
			c-1.093-1.124-2.251,0.438-3.056-0.497c0.306-1.675,0.761-0.06,1.358-0.994c-0.374-3.097,1.039-8.812-1.358-8.947
			c0.041-1.098,1.44-0.208,2.041-0.497c0,1.988,0,3.977,0,5.965c0.56,1.272,0.91-1.938,2.034-1.491
			c0.136-1.193-1.545,0.273-1.019-1.491c0.601-0.209,2.798-0.209,3.396,0c-0.377,1.596-2.024,1.342-2.717,2.485
			c0.713,1.938,1.498,3.772,3.06,4.473c-0.363,1.625-2.408,0.333-3.06,0.497C31.286,14.12,30.125,12.569,29.663,11.475z"/>
		<path d="M31.361,29.368c-0.014-2.674-3.247-3.483-3.053,0C29.323,29.368,30.342,29.368,31.361,29.368z M32.04,31.356
			c0.047,2.719-1.498,3.106-3.396,2.982c-4.903-3.996,3.375-14.17,3.396-3.977c-1.341,0.185-3.253-0.457-4.075,0.497
			c0.343,0.989,0.588,2.123,1.358,2.485C31.062,33.901,30.688,31.366,32.04,31.356z"/>
		<path d="M26.607,34.339c-3.861,1.481-7.58-2.098-5.094-7.952c1.008-0.677,2.462-0.721,3.056,0.497
			c0.604-2.545-0.9-1.993-1.019-3.479c0.679,0,1.358,0,2.041,0C25.836,27.187,24.851,32.769,26.607,34.339z M23.55,33.345
			c1.375-0.184,1.25-4.513,0.679-5.964C21.415,24.846,20.28,33.663,23.55,33.345z"/>
		<path d="M25.928,11.972c-2.663,11.288-8.259-8.524-0.336-4.473c0.309,1.252,0.648,3.41-0.683,3.479
			c-0.805-1.014,0.465-1.968-0.339-2.982c-2.927-0.984-3.06,5.8-1.019,6.461C25.157,14.82,24.654,12.097,25.928,11.972z"/>
		<path fill="#D85269" d="M24.229,27.381c0.571,1.451,0.696,5.78-0.679,5.964C20.28,33.663,21.415,24.846,24.229,27.381z"/>
		<path d="M19.476,27.381c1.077,4.274-0.353,7.545-2.717,6.958C12.555,33.295,15.435,21.64,19.476,27.381z M17.778,33.345
			c1.531-0.348,1.419-6.089,0-6.461C15.193,26.014,14.691,34.429,17.778,33.345z"/>
		<path d="M18.742,6.699c4.578,1.918-0.55,13.49-3.396,6.461C14.983,7.31,16.769,5.874,18.742,6.699z M18.253,14.164
			c1.348-0.696,1.606-6.426-0.339-6.461C15.295,7.732,15.336,14.642,18.253,14.164z"/>
		<path fill="#D85269" d="M17.914,7.703c1.946,0.035,1.688,5.766,0.339,6.461C15.336,14.642,15.295,7.732,17.914,7.703z"/>
		<path fill="#D85269" d="M17.778,26.884c1.419,0.372,1.531,6.113,0,6.461C14.691,34.429,15.193,26.014,17.778,26.884z"/>
		<path d="M14.042,10.978c1.297-0.233,0.642,3.882,0.339,4.474c-1.26-0.805-3.341-0.413-5.094-0.497
			c1.002,1.819,2.156,5.945,0.679,8.45c2.214-0.646,2.635,1.63,3.735,0c-0.092,1.689,0.262,4.031-0.339,4.97
			c-0.625-1.237-0.493-3.588-1.698-3.976c-6.309,0.497-0.502,15.9,2.038,5.467c0.757,8.902-9.488,2.739-5.094-4.97
			C1.111,28.102,2.466,10.71,9.288,14.458C9.91,11.6,10.089,5.426,8.27,4.517c1.246,0,2.489,0,3.735,0
			c-1.898,0.87-1.311,5.373-1.358,8.947c0.251,1.124,1.905,0.194,2.717,0.497C14.324,14.04,13.081,10.899,14.042,10.978z
			 M9.288,16.943C8.69,17.231,7.292,16.341,7.25,17.44c1.358-0.631,1.297,3.36,0.679,3.976c-0.404-1.561-1.147-2.629-1.358-4.473
			c-0.493,0.273-1.756-0.582-1.698,0.497c0.228,0,0.452,0,0.679,0c-0.119,1.978,0.424,4.925-0.679,5.467
			c0.598-0.288,1.997,0.602,2.038-0.497c-1.165,0.502-0.808-3.733-0.339-3.977c0.546,1.685,0.465,4.29,2.037,4.474
			C8.643,20.636,8.334,17.867,9.288,16.943z"/>
		<path fill="#D85269" d="M7.25,17.44c0.041-1.099,1.44-0.209,2.038-0.497c-0.954,0.924-0.645,3.693-0.679,5.964
			c-1.572-0.184-1.491-2.789-2.037-4.474c-0.469,0.244-0.825,4.479,0.339,3.977c-0.041,1.099-1.44,0.209-2.038,0.497
			c1.104-0.542,0.561-3.489,0.679-5.467c-0.228,0-0.452,0-0.679,0c-0.058-1.079,1.206-0.224,1.698-0.497
			c0.21,1.844,0.954,2.913,1.358,4.473C8.548,20.8,8.609,16.809,7.25,17.44z"/>
	</g>
	<g>
	</g>
</g>
<g>
	<path fill="#F2F9F6" d="M68.608,21.815c-0.126,0.396-0.57,1.571-0.802,1.943h-9.862v-0.348c1.816-0.084,1.985-0.168,1.985-1.212
		v-4.833c0-1.043-0.148-1.104-1.901-1.175v-0.36h5.766v0.36c-1.732,0.06-1.923,0.12-1.923,1.175v4.798
		c0,0.647,0.106,0.887,0.507,1.007c0.422,0.132,1.14,0.156,2.049,0.156c1.16,0,1.899-0.072,2.407-0.372
		c0.38-0.239,0.781-0.636,1.14-1.199L68.608,21.815z"/>
	<path fill="#F2F9F6" d="M74.739,18.278c2.703,0,4.709,1.235,4.709,2.735c0,1.954-2.577,2.89-4.73,2.89
		c-3.041,0-4.735-2.41-4.794-2.687c-0.38-1.78,2.789-2.938,4.794-2.938H74.739z M74.464,18.698c-1.266,0-2.428,0.744-2.428,2.111
		c0,1.535,1.162,2.687,2.913,2.687c1.29,0,2.388-0.528,2.388-2.219c0-1.451-1.014-2.579-2.851-2.579H74.464z"/>
	<path fill="#F2F9F6" d="M129.001,17.801c2.703,0,4.709,1.235,4.709,2.735c0,1.955-2.577,2.891-4.73,2.891
		c-3.04,0-4.735-2.411-4.794-2.688c-0.381-1.78,2.788-2.938,4.794-2.938H129.001z M128.726,18.221c-1.267,0-2.428,0.744-2.428,2.111
		c0,1.536,1.161,2.687,2.913,2.687c1.29,0,2.388-0.527,2.388-2.219c0-1.451-1.014-2.579-2.851-2.579H128.726z"/>
	<path fill="#F2F9F6" d="M89.336,22.644c-0.949,0.731-2.407,1.259-3.674,1.259c-2.766,0-4.393-1.235-4.393-2.542
		c0-0.936,0.718-1.751,2.175-2.387c1.162-0.48,2.471-0.696,3.273-0.696h0.021c0.887,0,1.625,0.168,1.942,0.336
		c0.295,0.132,0.358,0.228,0.358,0.372c0,0.264-0.485,0.54-0.737,0.54c-0.128,0-0.233-0.036-0.424-0.132
		c-0.654-0.36-1.436-0.516-2.174-0.516c-1.374,0-2.348,1.16-2.599,1.931c-0.563,1.731,2.069,2.23,3.253,2.23
		c0.93,0,1.625-0.132,2.617-0.659L89.336,22.644z"/>
	<path fill="#F2F9F6" d="M97.64,23.783c-0.992-0.624-2.344-1.607-3.505-2.411c-0.274-0.191-0.466-0.252-0.634-0.252
		c-0.105,0-0.212,0-0.337,0.024v1.331c0,0.815,0.188,0.888,1.561,0.959v0.324h-4.919v-0.324c1.436-0.071,1.562-0.168,1.562-0.959
		V16.73c0-0.792-0.106-0.863-1.414-0.936v-0.288c1.034-0.06,2.302-0.252,3.21-0.42v5.733c0.633-0.072,1.013-0.228,1.329-0.42
		c0.486-0.264,1.062-0.85,1.522-1.067c1.235-0.583,0.356-0.479-0.655-0.54v-0.336l4.478-0.108v0.324
		c-1.479,0.132-1.986,0.264-2.81,0.708c-0.57,0.312-0.929,0.54-1.838,1.139c0.422,0.372,2.64,1.823,3.356,2.255
		c0.761,0.443,1.332,0.636,2.135,0.659v0.324L97.64,23.783z"/>
	<path fill="#F2F9F6" d="M113.445,19.489c2.176,0.18,3.844,0.72,3.844,1.931c0,0.815-0.761,1.451-2.05,1.847
		c-1.097,0.349-2.576,0.492-4.287,0.492h-4.878v-0.348c1.858-0.084,1.986-0.156,1.986-1.176v-4.881c0-1.02-0.085-1.092-1.816-1.164
		v-0.36h5.659c1.647,0,2.598,0.144,3.295,0.42c0.759,0.288,1.224,0.828,1.224,1.391c0,1.164-1.731,1.619-2.977,1.823V19.489z
		 M110.975,19.345c2.364,0,3.336-0.528,3.336-1.547c0-0.852-0.845-1.559-2.851-1.559c-0.528,0-0.993,0.06-1.204,0.132
		c-0.189,0.072-0.274,0.204-0.274,0.6v2.375H110.975z M109.981,21.789c0,0.888,0.422,1.538,1.816,1.538
		c1.709-0.012,3.272-0.504,3.272-1.787c0-1.223-1.499-1.787-4.139-1.787h-0.95V21.789z"/>
	<path fill="#F2F9F6" d="M118.352,23.759v-0.324c1.352-0.071,2.097-0.226,1.736-1.188l-0.194-5.517c0-0.827-0.127-0.852-1.479-0.923
		v-0.3c1.14-0.072,2.515-0.264,3.294-0.42v7.376c0,0.827,0.169,0.911,1.564,0.971v0.324H118.352z"/>
	<path fill="#F2F9F6" d="M144.906,18.53c-0.169,0.192-0.612,0.516-0.972,0.624l-1.204-0.048c0.381,0.276,0.612,0.647,0.612,1.091
		c0,1.295-1.942,1.943-3.822,1.943c-0.38,0-0.76-0.036-1.097-0.072c-0.296,0.108-0.512,0.356-0.614,0.504
		c-0.597,0.854,0.38,0.456,1.352,0.456c0.782,0,1.522-0.012,2.259-0.012c1.353,0,3.127,0.228,3.127,1.451
		c0,1.247-2.556,2.435-5.428,2.435c-2.45,0-3.758-0.804-3.78-1.499c-0.021-0.276,0.211-0.517,0.55-0.696
		c0.444-0.239,1.245-0.6,1.752-0.827c-0.76-0.132-1.312-0.391-1.604-0.672c-0.949-0.918-0.097-0.756-0.074-0.876
		c0.864-0.192,1.426-0.144,1.762-0.383c-1.013-0.24-1.899-0.804-1.899-1.631c0-1.392,2.196-2.039,3.864-2.039h0.043
		c0.717,0,1.436,0.108,2.091,0.324c1.076-0.024,2.195-0.108,2.976-0.18L144.906,18.53z M139.943,23.915
		c-1.015,0-1.499,0.071-1.902,0.264c-0.527,0.264-0.929,0.575-0.929,0.923c0,0.648,1.225,1.164,2.852,1.164
		c2.007,0,3.062-0.588,3.062-1.344c0-0.407-0.38-0.707-1.015-0.852c-0.527-0.132-1.16-0.155-2.048-0.155H139.943z M139.479,18.662
		c-0.866,0-1.732,0.504-1.732,1.463c0,0.936,0.823,1.619,2.006,1.619c0.932-0.024,1.754-0.492,1.754-1.452
		c0-0.935-0.781-1.631-2.006-1.631H139.479z"/>
</g>
</svg>
